<svg width="40" height="40" viewBox="0 0 40 40" fill="none" xmlns="http://www.w3.org/2000/svg">
<g clip-path="url(#clip0)">
<path d="M26.6666 36.6667L26.6666 30.2167C26.7292 29.422 26.6218 28.6231 26.3517 27.873C26.0815 27.123 25.6549 26.4391 25.1 25.8667C30.3333 25.2834 35.8333 23.3001 35.8333 14.2001C35.8329 11.8731 34.9378 9.63539 33.3333 7.95006C34.0931 5.91424 34.0394 3.66397 33.1833 1.66673C33.1833 1.66673 31.2166 1.08339 26.6666 4.13339C22.8467 3.0981 18.82 3.0981 15 4.13339C10.45 1.08339 8.48331 1.66673 8.48331 1.66673C7.62727 3.66397 7.57355 5.91424 8.33331 7.95006C6.71686 9.64789 5.82085 11.9058 5.83331 14.2501C5.83331 23.2834 11.3333 25.2667 16.5666 25.9167C16.0183 26.4833 15.5954 27.1591 15.3255 27.8999C15.0556 28.6408 14.9447 29.4302 15 30.2167L15 36.6667M15 31.6667C6.66665 34.1667 6.66665 27.5001 3.33331 26.6667L15 31.6667Z" stroke="#E5E5E5" stroke-width="2" stroke-linecap="round" stroke-linejoin="round"/>
</g>
<defs>
<clipPath id="clip0">
<rect width="40" height="40" fill="white"/>
</clipPath>
</defs>
</svg>
